<?xml version="1.0" encoding="iso-8859-1"?>
<!-- Generator: Adobe Illustrator 16.0.0, SVG Export Plug-In . SVG Version: 6.00 Build 0)  -->
<!DOCTYPE svg PUBLIC "-//W3C//DTD SVG 1.1//EN" "http://www.w3.org/Graphics/SVG/1.1/DTD/svg11.dtd">
<svg version="1.1" id="Capa_1" xmlns="http://www.w3.org/2000/svg" xmlns:xlink="http://www.w3.org/1999/xlink" x="0px" y="0px"
	 width="612px" height="612px" viewBox="0 0 612 612" style="enable-background:new 0 0 612 612;" xml:space="preserve">
<g>
	<g id="Questionmark">
		<g>
			<path d="M344.25,153c0,0-1.186,0-76.5,0s-76.5,76.5-76.5,76.5v38.25h76.5c0,0-1.186-38.25,38.25-38.25s38.25,38.25,38.25,38.25
				c-44.217,0-76.5,76.5-76.5,76.5h76.5c0-33.469,38.25-38.25,38.25-38.25s38.25-4.781,38.25-76.5S344.25,153,344.25,153z M306,0
				C137.012,0,0,137.012,0,306s137.012,306,306,306s306-137.012,306-306S474.988,0,306,0z M306,535.5
				C179.239,535.5,76.5,432.761,76.5,306S179.239,76.5,306,76.5S535.5,179.239,535.5,306S432.761,535.5,306,535.5z M267.75,459h76.5
				v-76.5h-76.5V459z"/>
		</g>
	</g>
</g>
<g>
</g>
<g>
</g>
<g>
</g>
<g>
</g>
<g>
</g>
<g>
</g>
<g>
</g>
<g>
</g>
<g>
</g>
<g>
</g>
<g>
</g>
<g>
</g>
<g>
</g>
<g>
</g>
<g>
</g>
</svg>
